<?xml version="1.0" encoding="UTF-8"?>
<svg xmlns="http://www.w3.org/2000/svg" id="Layer_1" data-name="Layer 1" viewBox="0 0 113.74 90.81">
  <rect x="89.3" y="65.16" width="15.2" height="22.81" fill="#44b2e8"></rect>
  <rect x="87.66" y="63.67" width="16.76" height="22.97" fill="none" stroke="#58595b" stroke-miterlimit="10" stroke-width="2.13"></rect>
  <g>
    <path d="M20.22,85.49v2.24c0,1.11-.96,2.02-2.14,2.02h-5.46c-1.18,0-2.14-.91-2.14-2.02v-5.1s1.92,2.91,6.29,2.91c1.57,0,3.46-.05,3.46-.05Z" fill="none" stroke="#58595b" stroke-miterlimit="10" stroke-width="2.13"></path>
    <path d="M29.29,72.28c-3.58,0-4.38-.81-5.78-1.69-1.55-.96-7.21-4.78-9.56-6.41s-3.47-.79-3.47,1.11v12.84c0,3.3,2.83,5.98,6.33,5.98h45.52c3.5,0,6.33-2.68,6.33-5.98,0,0,0-10.94,0-12.84s-1.17-2.7-3.47-1.11c-2.36,1.62-8.02,5.45-9.56,6.41-1.4.87-2.2,1.69-5.78,1.69h-20.54Z" fill="none" stroke="#58595b" stroke-miterlimit="10" stroke-width="2.13"></path>
    <path d="M15.35,11.66c-3.08,0-4.87,2.12-4.87,5.29v40.1c0,3.6,1.17,4.01,3.47,5.6,2.36,1.62,8.02,5.45,9.56,6.41,1.4.87,2.2,1.69,5.78,1.69h20.54c3.58,0,4.38-.81,5.78-1.69,1.55-.96,7.21-4.78,9.56-6.41s3.47-2,3.47-5.6,0-36.92,0-40.1c0-3.17-1.79-5.29-4.87-5.29H15.35Z" fill="none" stroke="#58595b" stroke-miterlimit="10" stroke-width="2.13"></path>
    <rect x="13.16" y="22.77" width="52.76" height="21.37" rx="2.83" ry="2.83" fill="none" stroke="#58595b" stroke-miterlimit="10" stroke-width="2.13"></rect>
    <rect x="29.29" y="74.58" width="21.51" height="5.11" rx="2.56" ry="2.56" fill="none" stroke="#58595b" stroke-miterlimit="10" stroke-width="2.13"></rect>
    <path d="M4.33,39.22l-2.19-.91c-.58-.24-1.07-.86-1.07-1.63v-9.61c0-.56.48-1.01,1.07-1.01h2.79c.59,0,1.07.46,1.07,1.01v11.31c0,.93-.53,1.3-1.67.85Z" fill="none" stroke="#58595b" stroke-miterlimit="10" stroke-width="2.13"></path>
    <path d="M4.41,26.05s-.23-1.49,1.68-2.43,4.38-1.82,4.38-1.82v-2.3s-4.51,2.02-5.6,2.5-2.42,1.26-2.42,4.05h1.95Z" fill="none" stroke="#58595b" stroke-miterlimit="10" stroke-width="2.13"></path>
    <path d="M14.65,67.63c.72.48,5.33,3.46,6.02,3.94,1.18.82,1.09,1.48,0,1.48h-5.63c-1.12,0-2.32-.42-2.32-2.01v-2.96c0-.79.69-1.28,1.93-.45Z" fill="none" stroke="#58595b" stroke-miterlimit="10" stroke-width="2.13"></path>
    <path d="M52.6,59.33h-26c-.59,0-1.07-.46-1.07-1.01l-.38-2.83c0-.56.48-1.01,1.07-1.01h26.76c.59,0,1.07.46,1.07,1.01l-.38,2.83c0,.56-.48,1.01-1.07,1.01Z" fill="none" stroke="#58595b" stroke-miterlimit="10" stroke-width="2.13"></path>
    <path d="M51.33,66.67h-23.51c-.53,0-.97-.37-.97-.83l-.34-2.32c0-.46.44-.83.97-.83h24.19c.53,0,.97.37.97.83l-.34,2.32c0,.46-.44.83-.97.83Z" fill="none" stroke="#58595b" stroke-miterlimit="10" stroke-width="2.13"></path>
    <path d="M52.51,1.06h14.02v9.05s-.76-.95-2.69-.95H15.29c-1.93,0-2.69.95-2.69.95V1.06h39.91Z" fill="none" stroke="#58595b" stroke-miterlimit="10" stroke-width="2.13"></path>
    <path d="M58.91,85.49v2.24c0,1.11.96,2.02,2.14,2.02h5.46c1.18,0,2.14-.91,2.14-2.02v-5.1s-1.92,2.91-6.29,2.91c-1.57,0-3.46-.05-3.46-.05Z" fill="none" stroke="#58595b" stroke-miterlimit="10" stroke-width="2.13"></path>
    <path d="M74.8,39.22l2.19-.91c.58-.24,1.07-.86,1.07-1.63v-9.61c0-.56-.48-1.01-1.07-1.01h-2.79c-.59,0-1.07.46-1.07,1.01v11.31c0,.93.53,1.3,1.67.85Z" fill="none" stroke="#58595b" stroke-miterlimit="10" stroke-width="2.13"></path>
    <path d="M74.72,26.05s.23-1.49-1.68-2.43-4.38-1.82-4.38-1.82v-2.3s4.51,2.02,5.6,2.5,2.42,1.26,2.42,4.05h-1.95Z" fill="none" stroke="#58595b" stroke-miterlimit="10" stroke-width="2.13"></path>
    <path d="M64.48,67.63c-.72.48-5.33,3.46-6.02,3.94-1.18.82-1.09,1.48,0,1.48h5.63c1.12,0,2.32-.42,2.32-2.01,0-1.59,0-2.17,0-2.96,0-.79-.69-1.28-1.93-.45Z" fill="none" stroke="#58595b" stroke-miterlimit="10" stroke-width="2.13"></path>
  </g>
  <polygon points="104.5 39.42 89.43 39.42 87.33 23.54 104.5 23.54 104.5 39.42" fill="#44b2e8"></polygon>
  <rect x="89.3" y="45.32" width="15.2" height="9.67" fill="#44b2e8"></rect>
  <path d="M84.51,86.63v-14.21c0-.57.45-1.03,1.01-1.03h6.55c.55,0,1.01.46,1.01,1.03v14.21" fill="#44b2e8"></path>
  <polygon points="104.42 40.2 87.66 40.2 85.32 21.77 104.42 21.77 104.42 40.2" fill="none" stroke="#58595b" stroke-miterlimit="10" stroke-width="2.13"></polygon>
  <rect x="87.66" y="43.74" width="16.76" height="12.03" fill="none" stroke="#58595b" stroke-miterlimit="10" stroke-width="2.13"></rect>
  <rect x="94.72" y="20.69" width="2.63" height="66.5" fill="#fff" stroke="#58595b" stroke-miterlimit="10" stroke-width="2.13"></rect>
  <path d="M83.03,87.42v-16.12c0-.64.53-1.17,1.17-1.17h7.62c.64,0,1.17.53,1.17,1.17v16.12" fill="none" stroke="#58595b" stroke-miterlimit="10" stroke-width="2.13"></path>
  <path d="M79.4,90.75v-2.12c0-.79.65-1.44,1.44-1.44h30.4c.79,0,1.44.65,1.44,1.44v2.12" fill="none" stroke="#58595b" stroke-miterlimit="10" stroke-width="2.13"></path>
  <path d="M87.33,74.9H6.18c-.44,0-.8-.24-.8-.53v-1.48c0-.29.36-.53.8-.53h81.15" fill="#44b2e8"></path>
  <path d="M87.25,75.69H4.34c-.45,0-.81-.37-.81-.81v-2.27c0-.45.37-.81.81-.81h82.91s1.62.35,1.62,1.95-1.62,1.95-1.62,1.95Z" fill="none" stroke="#58595b" stroke-miterlimit="10" stroke-width="2.13"></path>
</svg>
